# xmcd
# Copyright (C) 1995-1998 Ti Kan
#
# Track frame offsets:
#       150
#       28233
#       53932
#       75624
#       98240
#       127321
#       153285
#       176807
#       199057
#       218459
#       236406
#       263737
#       294042
#
# Disc length: 4224 seconds
#
# Revision: 0
# Processed by: cddbd v1.5.2PL0 Copyright (c) Steve Scherf et al.
# Submitted via: CD-Import v1.0
#
DISCID=b1107e0d
DTITLE=Groove Corporation - Presents Remixes From The Elephant House
DYEAR=1900
DGENRE=
TTITLE0=Dillinger - Cocaine In My Brain
TTITLE1=Bob Marley and The Wailers - Put It On (Again)
TTITLE2=Groove Corporation - Peace Time
TTITLE3=Rockers Hi-Fi Meet Ella Fitzgerald - Sunshine Of Your Love
TTITLE4=Rae and Christian Feat. The Congos
TTITLE5=Ub40 - Legalise It
TTITLE6=Luciano - Police and Thieves
TTITLE7=Original Cast - Echo Beach
TTITLE8=Yabby You - Conquering Lion
TTITLE9=South - Dub Remedies
TTITLE10=Groove Corporation - Concrete Jungle
TTITLE11=Bobby Womack - Across 110th Street
TTITLE12=Ennio Morricone - Giocoso, Gioioso
EXTD=
EXTT0=
EXTT1=
EXTT2=
EXTT3=
EXTT4=
EXTT5=
EXTT6=
EXTT7=
EXTT8=
EXTT9=
EXTT10=
EXTT11=
EXTT12=
PLAYORDER=
